<?xml version="1.0" encoding="UTF-8"?>
<!DOCTYPE svg PUBLIC "-//W3C//DTD SVG 1.1//EN" "http://www.w3.org/Graphics/SVG/1.1/DTD/svg11.dtd">
<svg xmlns="http://www.w3.org/2000/svg" version="1.1" width="500px" height="500px" style="shape-rendering:geometricPrecision; text-rendering:geometricPrecision; image-rendering:optimizeQuality; fill-rule:evenodd; clip-rule:evenodd" xmlns:xlink="http://www.w3.org/1999/xlink">
<g><path style="opacity:1" fill="#053c5a" d="M 226.5,-0.5 C 241.833,-0.5 257.167,-0.5 272.5,-0.5C 369.214,12.7327 438.38,63.3994 480,151.5C 490.133,176.033 496.633,201.366 499.5,227.5C 499.5,242.167 499.5,256.833 499.5,271.5C 486.733,368.749 436.066,438.249 347.5,480C 323.312,490.129 298.312,496.629 272.5,499.5C 257.167,499.5 241.833,499.5 226.5,499.5C 129.833,486.328 60.6664,435.661 19,347.5C 8.86699,322.967 2.36699,297.634 -0.5,271.5C -0.5,256.833 -0.5,242.167 -0.5,227.5C 12.2065,130.298 62.8732,60.7979 151.5,19C 175.688,8.87076 200.688,2.37076 226.5,-0.5 Z"/></g>
<g><path style="opacity:0.999" fill="#faf8fd" d="M 233.5,15.5 C 238.762,15.1953 243.928,15.5286 249,16.5C 250.392,27.8094 251.059,39.1428 251,50.5C 247.617,60.1193 240.784,65.2859 230.5,66C 218.371,68.3486 209.538,64.1819 204,53.5C 202.392,42.2061 201.226,30.8727 200.5,19.5C 205.797,18.7255 211.13,18.3921 216.5,18.5C 217.336,29.2011 218.503,39.8678 220,50.5C 220.465,51.9308 221.299,53.0975 222.5,54C 230.959,56.3671 235.292,53.2005 235.5,44.5C 234.125,34.8797 233.459,25.213 233.5,15.5 Z"/></g>
<g><path style="opacity:0.999" fill="#faf8fd" d="M 292.5,19.5 C 303.052,21.889 313.385,25.0557 323.5,29C 329.22,33.8838 331.053,40.0505 329,47.5C 326.667,54.8333 321.667,58.8333 314,59.5C 308.813,58.7694 303.813,57.4361 299,55.5C 297.033,60.3703 295.533,65.3703 294.5,70.5C 289.852,69.3381 285.186,68.1714 280.5,67C 279.919,66.1074 279.585,65.1074 279.5,64C 283.688,49.5669 287.688,35.0669 291.5,20.5C 292.167,20.5 292.5,20.1667 292.5,19.5 Z"/></g>
<g><path style="opacity:0.997" fill="#fcfbfe" d="M 169.5,28.5 C 170.675,28.281 171.675,28.6143 172.5,29.5C 183.314,42.1483 194.314,54.6483 205.5,67C 200.717,68.5592 196.05,70.3926 191.5,72.5C 188.912,71.4158 186.745,69.7491 185,67.5C 180.198,69.1035 175.531,71.1035 171,73.5C 170.774,76.095 170.274,78.595 169.5,81C 164.994,82.8456 160.494,84.679 156,86.5C 155.333,69.1667 155.333,51.8333 156,34.5C 160.726,32.7147 165.226,30.7147 169.5,28.5 Z"/></g>
<g><path style="opacity:0.997" fill="#124263" d="M 303.5,35.5 C 312.336,34.8012 315.002,38.3012 311.5,46C 307.694,46.9782 304.361,46.1448 301.5,43.5C 302.785,40.9795 303.452,38.3128 303.5,35.5 Z"/></g>
<g><path style="opacity:0.996" fill="#fcfafe" d="M 346.5,37.5 C 351.297,39.1491 355.797,41.4824 360,44.5C 358.08,49.4789 355.58,54.3123 352.5,59C 356.47,62.7509 360.97,65.9176 366,68.5C 369.167,63.5 372.333,58.5 375.5,53.5C 379.987,56.1637 384.32,58.997 388.5,62C 380.847,76.1627 372.347,89.6627 363,102.5C 358.601,100.384 354.434,97.884 350.5,95C 353.208,90.4157 356.042,85.9157 359,81.5C 359.749,80.365 359.583,79.365 358.5,78.5C 354.703,76.5326 351.036,74.3659 347.5,72C 346.5,71.3333 345.5,71.3333 344.5,72C 341.625,76.9172 338.625,81.7505 335.5,86.5C 331.032,83.8633 326.698,81.03 322.5,78C 330.726,64.6132 338.726,51.1132 346.5,37.5 Z"/></g>
<g><path style="opacity:0.99" fill="#21456a" d="M 168.5,45.5 C 171.966,49.0739 174.966,53.0739 177.5,57.5C 175.195,60.1744 172.195,61.5077 168.5,61.5C 168.5,56.1667 168.5,50.8333 168.5,45.5 Z"/></g>
<g><path style="opacity:0.996" fill="#fcf9fe" d="M 123.5,51.5 C 127.038,53.1957 129.705,55.8623 131.5,59.5C 125.722,64.5625 119.722,69.3958 113.5,74C 111.017,76.7959 111.683,78.9626 115.5,80.5C 121.474,76.3594 127.308,72.026 133,67.5C 135.36,70.3603 137.527,73.3603 139.5,76.5C 134.144,81.0239 128.644,85.3572 123,89.5C 122.758,92.882 124.258,94.7154 127.5,95C 133.928,90.0395 140.428,85.2061 147,80.5C 149.709,82.8735 152.209,85.5401 154.5,88.5C 143.721,97.3967 132.721,106.063 121.5,114.5C 111.15,102.145 101.15,89.4784 91.5,76.5C 102.185,68.1428 112.852,59.8095 123.5,51.5 Z"/></g>
<g><path style="opacity:0.997" fill="#fbf8fd" d="M 398.5,70.5 C 403.072,73.5633 407.239,77.23 411,81.5C 409.358,88.1819 408.191,94.1819 407.5,99.5C 413.442,98.011 419.442,97.1776 425.5,97C 429.203,100.367 432.536,104.034 435.5,108C 423.953,111.044 412.286,113.71 400.5,116C 396.622,120.214 392.455,124.048 388,127.5C 384.386,124.05 380.886,120.383 377.5,116.5C 382.518,112.315 387.018,107.649 391,102.5C 393.566,91.8336 396.066,81.1669 398.5,70.5 Z"/></g>
<g><path style="opacity:1" fill="#deb963" d="M 294.5,358.5 C 290.235,374.117 283.735,389.451 275,404.5C 256.521,425.053 238.854,424.386 222,402.5C 214.075,388.309 208.075,373.309 204,357.5C 189.376,366.931 173.543,373.431 156.5,377C 139.94,379.809 128.44,373.642 122,358.5C 119.856,343.745 122.19,329.745 129,316.5C 132.578,309.009 136.412,301.676 140.5,294.5C 124.578,290.538 109.578,284.371 95.5,276C 73.842,259.423 73.1754,242.09 93.5,224C 108.075,214.882 123.741,208.216 140.5,204C 132.287,190.403 126.12,175.903 122,160.5C 118.167,131 131,118.167 160.5,122C 175.814,125.993 190.147,132.16 203.5,140.5C 208.108,123.835 214.942,108.168 224,93.5C 239.635,74.3158 255.969,73.6491 273,91.5C 282.966,106.551 290.133,122.885 294.5,140.5C 307.893,132.136 322.227,125.97 337.5,122C 368.17,117.86 381.003,131.027 376,161.5C 372.093,176.313 366.259,190.313 358.5,203.5C 366.912,206.952 375.578,210.118 384.5,213C 392.153,216.492 399.487,220.492 406.5,225C 425.155,244.133 423.488,261.466 401.5,277C 388.863,283.982 375.53,289.315 361.5,293C 360.09,293.368 359.09,294.201 358.5,295.5C 367.143,309.12 373.31,323.787 377,339.5C 379.815,367.352 367.315,379.852 339.5,377C 323.618,372.875 308.618,366.709 294.5,358.5 Z"/></g>
<g><path style="opacity:1" fill="#033b59" d="M 257.5,166.5 C 254.546,168.28 251.713,170.28 249,172.5C 245.956,169.949 242.789,167.616 239.5,165.5C 230.096,157.619 220.096,150.453 209.5,144C 208.941,143.275 208.608,142.442 208.5,141.5C 212.889,127.39 219.389,114.39 228,102.5C 243.264,86.087 257.931,86.7537 272,104.5C 280.024,116.216 286.191,128.883 290.5,142.5C 278.901,149.787 267.901,157.787 257.5,166.5 Z"/></g>
<g><path style="opacity:1" fill="#fcf9fe" d="M 77.5,95.5 C 93.4301,94.5946 104.263,101.595 110,116.5C 110.549,122.305 109.216,127.638 106,132.5C 100.728,139.391 95.2283,146.057 89.5,152.5C 76.6904,142.858 64.0237,133.024 51.5,123C 56.3333,116.833 61.1667,110.667 66,104.5C 69.4495,100.877 73.2828,97.8766 77.5,95.5 Z"/></g>
<g><path style="opacity:0.998" fill="#083f5e" d="M 77.5,110.5 C 85.0289,110.181 90.8622,113.181 95,119.5C 96.1715,125.161 94.5048,129.828 90,133.5C 83.5,128.333 77,123.167 70.5,118C 72.511,115.098 74.8443,112.598 77.5,110.5 Z"/></g>
<g><path style="opacity:1" fill="#fbf9fe" d="M 433.5,122.5 C 442.926,123.301 449.759,127.968 454,136.5C 458.198,144.008 458.531,151.674 455,159.5C 453.54,162.21 451.54,162.876 449,161.5C 447.287,157.905 445.453,154.405 443.5,151C 446.349,146.755 446.016,142.755 442.5,139C 440.866,138.506 439.199,138.34 437.5,138.5C 438.031,143.959 439.198,149.292 441,154.5C 442.831,170.998 435.664,177.165 419.5,173C 408.35,163.872 404.183,152.372 407,138.5C 408.5,137 410,135.5 411.5,134C 412.784,133.316 413.951,133.483 415,134.5C 417.223,137.779 419.057,141.279 420.5,145C 416.92,149.56 417.253,154.06 421.5,158.5C 423.045,159.452 424.712,159.785 426.5,159.5C 425.812,153.746 424.645,148.079 423,142.5C 420.485,132.525 423.985,125.858 433.5,122.5 Z"/></g>
<g><path style="opacity:1" fill="#023b59" d="M 148.5,130.5 C 167.564,130.391 185.397,135.058 202,144.5C 199.315,161.293 196.815,178.126 194.5,195C 178.471,196.255 162.637,198.755 147,202.5C 145.893,202.415 144.893,202.081 144,201.5C 134.784,184.969 130.45,167.302 131,148.5C 133.023,138.645 138.856,132.645 148.5,130.5 Z"/></g>
<g><path style="opacity:1" fill="#023b59" d="M 334.5,130.5 C 359.914,128.078 370.747,139.412 367,164.5C 364.629,178.45 359.796,191.45 352.5,203.5C 336.415,199.345 320.082,196.678 303.5,195.5C 302.403,178.752 299.736,162.252 295.5,146C 307.578,138.366 320.578,133.2 334.5,130.5 Z"/></g>
<g><path style="opacity:0.998" fill="#fbf9fd" d="M 42.5,138.5 C 52.8779,142.331 63.2112,146.498 73.5,151C 82.0391,157.286 84.5391,165.452 81,175.5C 78.5761,183.181 74.0761,189.347 67.5,194C 62.9241,195.476 58.2574,195.81 53.5,195C 43.3903,191.441 33.7236,187.108 24.5,182C 26.093,177.314 28.093,172.814 30.5,168.5C 39.3772,172.626 48.3772,176.459 57.5,180C 66.6066,180.879 70.1066,176.712 68,167.5C 67.1667,166.667 66.3333,165.833 65.5,165C 56.1089,161.219 46.9423,157.053 38,152.5C 38.6021,147.609 40.1021,142.942 42.5,138.5 Z"/></g>
<g><path style="opacity:1" fill="#053c59" d="M 238.5,166.5 C 241.31,169.136 244.31,171.636 247.5,174C 240.314,179.763 233.314,185.763 226.5,192C 217.501,192.917 208.501,193.75 199.5,194.5C 198.252,193.666 197.585,192.333 197.5,190.5C 199.485,176.082 202.485,161.915 206.5,148C 209.275,148.374 211.942,149.374 214.5,151C 222.698,155.928 230.698,161.095 238.5,166.5 Z"/></g>
<g><path style="opacity:1" fill="#073c59" d="M 300.5,192.5 C 299.306,193.777 297.64,194.444 295.5,194.5C 287.844,193.852 280.177,193.352 272.5,193C 265.323,186.656 258.323,180.156 251.5,173.5C 253.878,171.448 256.211,169.448 258.5,167.5C 265.68,162.496 273.013,157.663 280.5,153C 284.191,150.981 287.858,149.314 291.5,148C 295.97,162.516 298.97,177.349 300.5,192.5 Z"/></g>
<g><path style="opacity:0.998" fill="#faf7fd" d="M 465.5,169.5 C 466.5,169.5 467.5,169.5 468.5,169.5C 469.523,174.071 470.856,178.571 472.5,183C 472.355,183.772 472.022,184.439 471.5,185C 456.05,189.539 440.717,194.373 425.5,199.5C 425.187,194.558 423.853,189.891 421.5,185.5C 421.709,184.914 422.043,184.414 422.5,184C 437.105,179.632 451.439,174.799 465.5,169.5 Z"/></g>
<g><path style="opacity:1" fill="#caae62" d="M 239.5,165.5 C 242.789,167.616 245.956,169.949 249,172.5C 251.713,170.28 254.546,168.28 257.5,166.5C 258.167,166.5 258.5,166.833 258.5,167.5C 256.211,169.448 253.878,171.448 251.5,173.5C 258.323,180.156 265.323,186.656 272.5,193C 280.177,193.352 287.844,193.852 295.5,194.5C 297.64,194.444 299.306,193.777 300.5,192.5C 301.097,192.735 301.43,193.235 301.5,194C 300.944,195.011 300.278,195.844 299.5,196.5C 291.174,195.578 282.84,195.078 274.5,195C 284.689,204.376 294.356,213.542 303.5,222.5C 304.625,223.348 304.625,224.348 303.5,225.5C 293.699,214.866 283.366,204.699 272.5,195C 256.828,193.018 241.161,193.018 225.5,195C 223.963,196.707 222.296,198.207 220.5,199.5C 220.167,199.5 219.833,199.5 219.5,199.5C 220.625,197.871 221.959,196.371 223.5,195C 216.862,195.211 210.196,195.378 203.5,195.5C 201.901,195.768 200.568,195.434 199.5,194.5C 208.501,193.75 217.501,192.917 226.5,192C 233.314,185.763 240.314,179.763 247.5,174C 244.31,171.636 241.31,169.136 238.5,166.5C 238.5,165.833 238.833,165.5 239.5,165.5 Z"/></g>
<g><path style="opacity:1" fill="#043c59" d="M 248.5,175.5 C 255.803,180.5 262.803,186 269.5,192C 256.167,192.667 242.833,192.667 229.5,192C 235.73,186.262 242.064,180.762 248.5,175.5 Z"/></g>
<g><path style="opacity:1" fill="#053c59" d="M 303.5,225.5 C 304.466,233.08 304.799,240.747 304.5,248.5C 304.666,256.174 304.5,263.841 304,271.5C 293.863,282.637 283.363,293.471 272.5,304C 257.167,304.667 241.833,304.667 226.5,304C 215.333,294.167 204.833,283.667 195,272.5C 193.418,257.546 193.085,242.546 194,227.5C 194.513,226.473 195.013,225.473 195.5,224.5C 204.167,216.5 212.5,208.167 220.5,199.5C 222.296,198.207 223.963,196.707 225.5,195C 241.161,193.018 256.828,193.018 272.5,195C 283.366,204.699 293.699,214.866 303.5,225.5 Z"/></g>
<g><path style="opacity:1" fill="#0f3f59" d="M 219.5,199.5 C 211.202,207.298 203.035,215.298 195,223.5C 194.536,222.906 194.369,222.239 194.5,221.5C 195.02,213.154 195.687,204.821 196.5,196.5C 199.059,196.802 201.393,196.468 203.5,195.5C 210.196,195.378 216.862,195.211 223.5,195C 221.959,196.371 220.625,197.871 219.5,199.5 Z"/></g>
<g><path style="opacity:1" fill="#0d3e59" d="M 299.5,196.5 C 301.045,197.23 301.878,198.563 302,200.5C 303.036,207.799 303.536,215.132 303.5,222.5C 294.356,213.542 284.689,204.376 274.5,195C 282.84,195.078 291.174,195.578 299.5,196.5 Z"/></g>
<g><path style="opacity:1" fill="#063c59" d="M 193.5,215.5 C 192.521,218.625 192.187,221.958 192.5,225.5C 186.168,232.668 180.002,240.001 174,247.5C 172.264,245.937 170.764,244.27 169.5,242.5C 161.402,231.384 154.069,219.717 147.5,207.5C 154.556,204.595 161.889,202.428 169.5,201C 177.783,199.344 186.116,198.177 194.5,197.5C 193.693,203.464 193.36,209.464 193.5,215.5 Z"/></g>
<g><path style="opacity:1" fill="#033c59" d="M 326.5,245.5 C 325.577,246.303 324.577,246.47 323.5,246C 317.967,239.637 312.301,233.471 306.5,227.5C 305.262,217.592 304.595,207.592 304.5,197.5C 320.421,199.451 336.087,202.617 351.5,207C 343.779,220.288 335.445,233.121 326.5,245.5 Z"/></g>
<g><path style="opacity:0.999" fill="#fbf8fd" d="M 67.5,203.5 C 67.5,204.167 67.8333,204.5 68.5,204.5C 67.8357,209.468 67.3357,214.468 67,219.5C 60.5682,222.118 54.0682,224.451 47.5,226.5C 47.5,228.5 47.5,230.5 47.5,232.5C 53.1613,232.907 58.828,233.24 64.5,233.5C 64.781,238.565 64.4476,243.565 63.5,248.5C 47.4422,248.421 31.4422,247.087 15.5,244.5C 15.9236,232.993 17.0903,221.659 19,210.5C 23.3068,200.639 30.4735,197.805 40.5,202C 43.9684,204.124 46.6351,206.957 48.5,210.5C 54.638,207.566 60.9713,205.233 67.5,203.5 Z"/></g>
<g><path style="opacity:1" fill="#faf8fd" d="M 450.5,200.5 C 473.545,199.383 483.712,210.383 481,233.5C 478.219,242.79 472.052,247.79 462.5,248.5C 462.45,244.812 462.116,241.145 461.5,237.5C 461.833,236.167 462.167,234.833 462.5,233.5C 468.31,231.622 470.477,227.622 469,221.5C 467.833,219.667 466.333,218.167 464.5,217C 458.365,216.355 452.365,217.022 446.5,219C 441.049,224.56 441.382,229.894 447.5,235C 449.473,235.495 451.473,235.662 453.5,235.5C 453.54,240.193 453.873,244.859 454.5,249.5C 442.909,250.757 435.409,245.757 432,234.5C 427.012,216.794 433.179,205.461 450.5,200.5 Z"/></g>
<g><path style="opacity:1" fill="#b09f61" d="M 219.5,199.5 C 219.833,199.5 220.167,199.5 220.5,199.5C 212.5,208.167 204.167,216.5 195.5,224.5C 194.391,224.557 193.391,224.89 192.5,225.5C 192.187,221.958 192.521,218.625 193.5,215.5C 193.205,217.735 193.539,219.735 194.5,221.5C 194.369,222.239 194.536,222.906 195,223.5C 203.035,215.298 211.202,207.298 219.5,199.5 Z"/></g>
<g><path style="opacity:1" fill="#033b59" d="M 168.5,243.5 C 169.203,245.716 170.536,247.549 172.5,249C 171.614,250.615 170.614,252.115 169.5,253.5C 160.422,264.094 152.255,275.427 145,287.5C 144.044,288.894 142.711,289.561 141,289.5C 123.541,284.942 108.541,276.275 96,263.5C 88.7281,253.804 88.7281,244.137 96,234.5C 108.938,222.109 124.105,213.442 141.5,208.5C 142.442,208.608 143.275,208.941 144,209.5C 151.255,221.573 159.422,232.906 168.5,243.5 Z"/></g>
<g><path style="opacity:1" fill="#033b59" d="M 329.5,254.5 C 328.741,252.564 327.741,250.731 326.5,249C 326.978,247.697 327.645,246.531 328.5,245.5C 338.565,233.696 347.898,221.363 356.5,208.5C 370.112,212.806 382.779,218.973 394.5,227C 402.088,232.914 406.755,240.581 408.5,250C 406.305,259.203 401.305,266.537 393.5,272C 382.222,279.971 369.889,285.805 356.5,289.5C 355.558,289.392 354.725,289.059 354,288.5C 346.745,276.427 338.578,265.094 329.5,254.5 Z"/></g>
<g><path style="opacity:1" fill="#e6bd63" d="M 241.5,215.5 C 262.762,213.366 276.596,222.366 283,242.5C 285.003,264.672 275.17,278.172 253.5,283C 234.091,283.921 221.591,275.088 216,256.5C 213.687,236.002 222.187,222.335 241.5,215.5 Z"/></g>
<g><path style="opacity:1" fill="#0b3f5f" d="M 37.5,224.5 C 36.5386,226.265 36.2053,228.265 36.5,230.5C 35.1667,230.5 33.8333,230.5 32.5,230.5C 31.1667,230.5 29.8333,230.5 28.5,230.5C 28.3111,225.839 28.9777,221.339 30.5,217C 36.9177,215.393 39.251,217.893 37.5,224.5 Z"/></g>
<g><path style="opacity:1" fill="#c79fe6" d="M 37.5,224.5 C 37.5,226.833 37.5,229.167 37.5,231.5C 35.5853,231.784 33.9187,231.451 32.5,230.5C 33.8333,230.5 35.1667,230.5 36.5,230.5C 36.2053,228.265 36.5386,226.265 37.5,224.5 Z"/></g>
<g><path style="opacity:1" fill="#093d59" d="M 193.5,274.5 C 193.626,283.509 193.959,292.509 194.5,301.5C 178.681,299.504 163.181,296.171 148,291.5C 150.739,285.029 154.072,278.696 158,272.5C 162.423,266.645 166.59,260.645 170.5,254.5C 171.584,253.026 172.918,252.193 174.5,252C 180.722,259.624 187.056,267.124 193.5,274.5 Z"/></g>
<g><path style="opacity:1" fill="#033c59" d="M 328.5,255.5 C 336.731,266.912 344.398,278.745 351.5,291C 336.769,295.455 321.769,298.622 306.5,300.5C 304.692,299.082 304.025,297.082 304.5,294.5C 304.5,291.5 304.5,288.5 304.5,285.5C 305.325,281.353 305.825,277.019 306,272.5C 312.208,265.961 318.041,259.127 323.5,252C 324.167,251.333 324.833,251.333 325.5,252C 326.163,253.518 327.163,254.685 328.5,255.5 Z"/></g>
<g><path style="opacity:0.997" fill="#faf7fd" d="M 442.5,254.5 C 445.167,254.5 447.833,254.5 450.5,254.5C 450.165,259.177 449.665,263.844 449,268.5C 445.124,268.71 442.79,270.71 442,274.5C 441.223,277.429 441.39,280.263 442.5,283C 443.784,283.684 444.951,283.517 446,282.5C 448.333,276.833 450.667,271.167 453,265.5C 459.942,256.049 467.942,255.049 477,262.5C 483.01,275.918 481.177,288.084 471.5,299C 468.5,301.003 465.167,301.836 461.5,301.5C 461.751,296.493 462.084,291.493 462.5,286.5C 467.566,286.417 469.899,283.751 469.5,278.5C 468.267,273.656 466.101,273.323 463,277.5C 461.494,285.37 457.994,292.203 452.5,298C 437.877,301.56 430.21,295.727 429.5,280.5C 429.776,273.396 431.609,266.73 435,260.5C 437.134,257.847 439.634,255.847 442.5,254.5 Z"/></g>
<g><path style="opacity:0.999" fill="#f8f5fc" d="M 21.5,256.5 C 23.604,256.201 25.604,256.534 27.5,257.5C 28.6321,262.091 29.2988,266.758 29.5,271.5C 41.4648,269.718 53.4648,268.552 65.5,268C 66.695,273.059 67.3617,278.225 67.5,283.5C 55.8125,284.646 44.1459,285.979 32.5,287.5C 33.2657,292.82 33.4324,298.154 33,303.5C 29.2136,304.795 25.3803,304.795 21.5,303.5C 18.681,288.282 16.681,272.948 15.5,257.5C 17.7354,257.795 19.7354,257.461 21.5,256.5 Z"/></g>
<g><path style="opacity:1" fill="#0c3e59" d="M 303.5,281.5 C 302.906,288.175 302.24,294.842 301.5,301.5C 294.508,302.249 287.508,302.916 280.5,303.5C 278.801,303.66 277.134,303.494 275.5,303C 285.333,294.5 294.5,285.333 303,275.5C 303.495,277.473 303.662,279.473 303.5,281.5 Z"/></g>
<g><path style="opacity:1" fill="#0e3e59" d="M 194.5,275.5 C 203.965,284.464 213.298,293.631 222.5,303C 220.866,303.494 219.199,303.66 217.5,303.5C 210.449,303.272 203.449,302.605 196.5,301.5C 195.613,292.851 194.946,284.185 194.5,275.5 Z"/></g>
<g><path style="opacity:1" fill="#043c59" d="M 349.5,295.5 C 351.144,295.286 352.644,295.62 354,296.5C 363.904,313.201 368.237,331.201 367,350.5C 365.377,360.456 359.544,365.956 349.5,367C 330.168,368.445 312.335,363.945 296,353.5C 298.985,336.964 301.485,320.298 303.5,303.5C 319.166,301.963 334.5,299.297 349.5,295.5 Z"/></g>
<g><path style="opacity:1" fill="#023b59" d="M 144.5,295.5 C 161.271,299.573 178.271,302.239 195.5,303.5C 196.473,319.532 198.806,335.365 202.5,351C 202.167,352.167 201.833,353.333 201.5,354.5C 189.831,360.666 177.498,364.833 164.5,367C 152.583,369.895 142.416,367.062 134,358.5C 129.445,345.882 129.445,333.215 134,320.5C 137.018,311.939 140.518,303.606 144.5,295.5 Z"/></g>
<g><path style="opacity:1" fill="#787f5e" d="M 304.5,294.5 C 304.025,297.082 304.692,299.082 306.5,300.5C 305.791,301.404 304.791,301.737 303.5,301.5C 303.198,298.941 303.532,296.607 304.5,294.5 Z"/></g>
<g><path style="opacity:1" fill="#747c5e" d="M 296.5,304.5 C 297.919,303.549 299.585,303.216 301.5,303.5C 301.784,305.415 301.451,307.081 300.5,308.5C 300.5,307.167 300.5,305.833 300.5,304.5C 299.167,304.5 297.833,304.5 296.5,304.5 Z"/></g>
<g><path style="opacity:1" fill="#033c59" d="M 209.5,304.5 C 214.985,305.327 220.652,305.827 226.5,306C 233.343,312.011 240.01,318.178 246.5,324.5C 234.342,334.743 221.342,343.743 207.5,351.5C 202.653,336.274 199.32,320.608 197.5,304.5C 201.5,304.5 205.5,304.5 209.5,304.5 Z"/></g>
<g><path style="opacity:1" fill="#033b59" d="M 286.5,304.5 C 289.833,304.5 293.167,304.5 296.5,304.5C 297.833,304.5 299.167,304.5 300.5,304.5C 300.5,305.833 300.5,307.167 300.5,308.5C 298.545,323.107 295.379,337.44 291,351.5C 279.063,344.706 267.563,337.373 256.5,329.5C 255.492,327.661 253.992,326.328 252,325.5C 251.333,324.833 251.333,324.167 252,323.5C 259.112,318.022 265.946,312.189 272.5,306C 277.351,305.826 282.018,305.326 286.5,304.5 Z"/></g>
<g><path style="opacity:1" fill="#fcfcfd" d="M 29.5,315.5 C 38.0088,314.179 46.6755,314.179 55.5,315.5C 78.8178,378.34 122.151,420.84 185.5,443C 257.133,462.888 321.799,449.554 379.5,403C 406.768,378.966 426.434,349.799 438.5,315.5C 447.147,314.335 455.814,314.168 464.5,315C 438.067,393.766 385.067,445.1 305.5,469C 216.752,489.362 140.919,466.862 78,401.5C 55.869,376.242 39.7023,347.576 29.5,315.5 Z"/></g>
<g><path style="opacity:1" fill="#023b59" d="M 254.5,329.5 C 265.887,338.89 277.553,347.89 289.5,356.5C 284.868,375.287 275.535,391.12 261.5,404C 253.205,409.992 244.872,409.992 236.5,404C 221.857,390.552 212.524,374.052 208.5,354.5C 222.434,346.745 235.434,337.578 247.5,327C 248.5,326.333 249.5,326.333 250.5,327C 251.471,328.481 252.804,329.315 254.5,329.5 Z"/></g>
<g><path style="opacity:1" fill="#d0b162" d="M 195.5,224.5 C 195.013,225.473 194.513,226.473 194,227.5C 193.085,242.546 193.418,257.546 195,272.5C 204.833,283.667 215.333,294.167 226.5,304C 241.833,304.667 257.167,304.667 272.5,304C 283.363,293.471 293.863,282.637 304,271.5C 304.5,263.841 304.666,256.174 304.5,248.5C 304.833,248.5 305.167,248.5 305.5,248.5C 305.167,255.926 305.501,262.592 306.5,268.5C 312.674,262.489 318.341,255.989 323.5,249C 318.267,242.668 312.934,236.502 307.5,230.5C 307.167,229.5 306.5,228.833 305.5,228.5C 305.5,227.833 305.833,227.5 306.5,227.5C 312.301,233.471 317.967,239.637 323.5,246C 324.577,246.47 325.577,246.303 326.5,245.5C 327.167,245.5 327.833,245.5 328.5,245.5C 327.645,246.531 326.978,247.697 326.5,249C 327.741,250.731 328.741,252.564 329.5,254.5C 329.5,255.167 329.167,255.5 328.5,255.5C 327.163,254.685 326.163,253.518 325.5,252C 324.833,251.333 324.167,251.333 323.5,252C 318.041,259.127 312.208,265.961 306,272.5C 305.825,277.019 305.325,281.353 304.5,285.5C 304.768,283.901 304.434,282.568 303.5,281.5C 303.662,279.473 303.495,277.473 303,275.5C 294.5,285.333 285.333,294.5 275.5,303C 277.134,303.494 278.801,303.66 280.5,303.5C 282.265,304.461 284.265,304.795 286.5,304.5C 282.018,305.326 277.351,305.826 272.5,306C 265.946,312.189 259.112,318.022 252,323.5C 251.333,324.167 251.333,324.833 252,325.5C 253.992,326.328 255.492,327.661 256.5,329.5C 255.833,329.5 255.167,329.5 254.5,329.5C 252.804,329.315 251.471,328.481 250.5,327C 249.5,326.333 248.5,326.333 247.5,327C 235.434,337.578 222.434,346.745 208.5,354.5C 207.89,353.609 207.557,352.609 207.5,351.5C 221.342,343.743 234.342,334.743 246.5,324.5C 240.01,318.178 233.343,312.011 226.5,306C 220.652,305.827 214.985,305.327 209.5,304.5C 212.385,304.806 215.052,304.473 217.5,303.5C 219.199,303.66 220.866,303.494 222.5,303C 213.298,293.631 203.965,284.464 194.5,275.5C 194.5,274.833 194.167,274.5 193.5,274.5C 187.056,267.124 180.722,259.624 174.5,252C 172.918,252.193 171.584,253.026 170.5,254.5C 170.5,253.833 170.167,253.5 169.5,253.5C 170.614,252.115 171.614,250.615 172.5,249C 170.536,247.549 169.203,245.716 168.5,243.5C 168.5,242.833 168.833,242.5 169.5,242.5C 170.764,244.27 172.264,245.937 174,247.5C 180.002,240.001 186.168,232.668 192.5,225.5C 193.391,224.89 194.391,224.557 195.5,224.5 Z"/></g>
<g><path style="opacity:1" fill="#073d59" d="M 268.5,307.5 C 262.165,312.999 255.665,318.332 249,323.5C 242.936,317.928 236.769,312.595 230.5,307.5C 243.167,306.167 255.833,306.167 268.5,307.5 Z"/></g>
<g><path style="opacity:1" fill="#69765d" d="M 268.5,307.5 C 255.833,306.167 243.167,306.167 230.5,307.5C 229.711,307.217 229.044,306.717 228.5,306C 242.5,305.333 256.5,305.333 270.5,306C 269.956,306.717 269.289,307.217 268.5,307.5 Z"/></g>
<g><path style="opacity:1" fill="#797f5e" d="M 305.5,228.5 C 306.5,228.833 307.167,229.5 307.5,230.5C 306.505,242.989 306.171,255.656 306.5,268.5C 305.501,262.592 305.167,255.926 305.5,248.5C 305.5,241.833 305.5,235.167 305.5,228.5 Z"/></g>
<g><path style="opacity:1" fill="#083d59" d="M 307.5,230.5 C 312.934,236.502 318.267,242.668 323.5,249C 318.341,255.989 312.674,262.489 306.5,268.5C 306.171,255.656 306.505,242.989 307.5,230.5 Z"/></g>
<g><path style="opacity:1" fill="#073d59" d="M 191.5,229.5 C 192.66,242.66 192.827,255.994 192,269.5C 185.934,263.27 180.434,256.604 175.5,249.5C 180.477,242.526 185.81,235.859 191.5,229.5 Z"/></g>
</svg>