<?xml version="1.0" encoding="UTF-8" standalone="no"?>
<!-- Created with Inkscape (http://www.inkscape.org/) -->

<svg
   version="1.1"
   id="svg1625"
   width="1600"
   height="1600"
   viewBox="0 0 1600 1600"
   sodipodi:docname="white-instagram-logo-vector-18.png"
   xmlns:inkscape="http://www.inkscape.org/namespaces/inkscape"
   xmlns:sodipodi="http://sodipodi.sourceforge.net/DTD/sodipodi-0.dtd"
   xmlns="http://www.w3.org/2000/svg"
   xmlns:svg="http://www.w3.org/2000/svg">
  <defs
     id="defs1629" />
  <sodipodi:namedview
     id="namedview1627"
     pagecolor="#ffffff"
     bordercolor="#000000"
     borderopacity="0.25"
     inkscape:showpageshadow="2"
     inkscape:pageopacity="0.0"
     inkscape:pagecheckerboard="0"
     inkscape:deskcolor="#d1d1d1"
     showgrid="false" />
  <g
     inkscape:groupmode="layer"
     inkscape:label="Image"
     id="g1631">
    <path
       style="fill:#000000"
       d="m 515.89269,1382.3709 c -51.08688,-4.2101 -91.74045,-15.6513 -133.95445,-37.6992 -88.45587,-46.1993 -153.03407,-132.3452 -171.95516,-229.3844 -6.55416,-33.6138 -6.09039,-8.4259 -6.09039,-330.77193 0,-237.20861 0.25067,-294.15791 1.3359,-303.50003 7.50735,-64.62631 30.17151,-119.90276 70.52255,-172 10.84115,-13.99702 40.35303,-43.38099 54.64155,-54.40473 50.59243,-39.03258 103.55229,-61.06596 166.5,-69.27052 13.2751,-1.73027 29.1454,-1.82475 306.5,-1.82475 277.35451,0 293.22481,0.0945 306.49991,1.82475 74.5139,9.71209 139.5897,40.85961 192.2542,92.01953 49.8202,48.3969 83.3423,111.02759 95.6226,178.65572 5.3516,29.4715 5.1232,14.84954 5.1232,328.00003 0,275.26253 -0.1005,292.26453 -1.8049,305.22623 -9.7351,74.0339 -40.5755,138.9613 -90.8437,191.2508 -48.3738,50.319 -111.4325,84.3118 -179.9229,96.9903 -28.3106,5.2407 -8.0216,4.9199 -320.92841,5.0746 -159.225,0.079 -291.3,-0.01 -293.5,-0.1864 z m 318,-267.3721 c 42.7128,-3.9403 83.2836,-15.8651 122,-35.8587 19.3367,-9.9857 30.1197,-16.7321 47.17431,-29.5149 76.4506,-57.30123 123.7514,-142.27643 132.4265,-237.90213 1.4825,-16.3426 0.6037,-57.1965 -1.5641,-72.7077 -10.3535,-74.08285 -43.0316,-139.8212 -95.4531,-192.02241 -51.71471,-51.49746 -113.85511,-82.6003 -188.08361,-94.14067 -12.8347,-1.99543 -18.2325,-2.25433 -47,-2.25433 -28.7675,0 -34.1653,0.2589 -47,2.25433 -62.5852,9.73019 -114.5676,32.49339 -163.4549,71.57726 -13.3354,10.66124 -37.9853,35.41357 -48.8826,49.08579 -41.6427,52.24632 -66.55138,113.62933 -72.63682,179.00003 -2.33598,25.0934 -0.76813,63.6932 3.57437,88 15.40885,86.2494 63.26175,162.32643 134.16135,213.29103 46.9793,33.7701 104.9689,55.6699 161.7386,61.0808 12.9464,1.2339 50.1204,1.2998 63,0.1116 z m -51.3929,-133.05473 c -69.1378,-7.8183 -128.3804,-49.4235 -158.6658,-111.4287 -27.11,-55.5037 -27.118,-119.7332 -0.022,-175 30.9053,-63.03646 90.2421,-104.25196 160.4366,-111.43962 36.0494,-3.69132 73.6219,3.12476 106.6441,19.34642 20.7873,10.21151 34.7157,19.9871 51.3698,36.0538 31.4764,30.36618 51.09415,68.0944 58.77751,113.0394 2.4408,14.2774 2.4395,46.1876 0,60.8776 -7.45386,44.8399 -27.73211,83.5907 -59.62481,113.9407 -30.0211,28.569 -65.7672,46.3352 -107.02,53.1901 -11.5835,1.9248 -40.4457,2.7148 -51.8928,1.4203 z m 440.79551,-535.4677 c 15.3267,-4.86163 29.4097,-15.99242 37.3729,-29.53845 6.4652,-10.99779 8.9975,-20.54516 8.9975,-33.92258 0,-9.68763 -0.4115,-12.76078 -2.611,-19.5 -3.6534,-11.19429 -8.9622,-19.79178 -17.4322,-28.23112 -5.7663,-5.74554 -9.1791,-8.15721 -16.5,-11.65991 -11.6135,-5.55653 -17.7779,-7.01004 -29.7299,-7.01004 -11.4684,0 -17.9359,1.44307 -28.5,6.3591 -18.0566,8.40263 -31.7736,25.28755 -36.5913,45.04197 -2.2555,9.24824 -1.5892,25.13209 1.4472,34.5 6.6508,20.51966 21.4353,35.9537 41.373,43.19068 13.4175,4.8703 28.3864,5.14372 42.1738,0.77035 z"
       id="path2841" />
  </g>
</svg>
